<svg width="319" height="36" viewBox="0 0 319 36" fill="none" xmlns="http://www.w3.org/2000/svg">
<path d="M12.65 0.3C13.9833 0.233332 15.0833 0.199998 15.95 0.199998C18.95 0.199998 21.7 0.399998 24.2 0.799999C25.4667 0.933333 26.6833 1.13333 27.85 1.4V8.55C26.45 8.41666 25.4 8.3 24.7 8.2C24.1333 8.16667 23.2167 8.08333 21.95 7.95C20.6833 7.88333 19.85 7.85 19.45 7.85C17.4167 7.85 15.9167 7.9 14.95 8C14.0167 8.06666 13.25 8.26667 12.65 8.6V0.3ZM15.95 35.4C12.6167 35.4 9.95 35.15 7.95 34.65C5.98333 34.15 4.45 33.2667 3.35 32C2.25 30.7333 1.46667 28.9833 1 26.75C0.566667 24.5167 0.35 21.5333 0.35 17.8C0.35 14.6333 0.5 12.0333 0.8 10C1.1 7.96667 1.61667 6.3 2.35 5C3.11667 3.66666 4.15 2.65 5.45 1.95C6.75 1.25 8.45 0.766664 10.55 0.499997V17.8C10.55 20.1667 10.6167 21.9833 10.75 23.25C10.8833 24.4833 11.1333 25.4333 11.5 26.1C11.9 26.8 12.4667 27.2833 13.2 27.55C13.9667 27.8167 15.05 27.95 16.45 27.95V35.4H15.95ZM18.55 21.8H15V14.55H28V34.15C26.4333 34.5167 24.4833 34.8 22.15 35C21.0167 35.1667 19.8167 35.2667 18.55 35.3V21.8ZM42.0578 0.599999H42.9078L46.8578 14.3L41.1078 35H31.1078L42.0578 0.599999ZM53.3078 28.9H44.9578L47.0578 21.2H51.0578L45.1578 0.599999H54.3078L65.2578 35H55.0578L53.3078 28.9ZM68.584 2.1V0.599999H77.784L92.184 31.2L90.534 35H84.034L68.584 2.1ZM96.834 20.55H96.634L93.284 28.65L88.984 19.45L96.834 0.599999H106.334V35H96.834V20.55ZM68.584 7.05L77.784 26.65V35H68.584V7.05ZM112.822 0.599999H122.822V35H112.822V0.599999ZM124.922 0.599999H137.622V8.25H124.922V0.599999ZM124.922 13.8H135.272V21.45H124.922V13.8ZM124.922 27.35H137.622V35H124.922V27.35ZM156.621 2.1V0.599999H165.821L180.221 31.2L178.571 35H172.071L156.621 2.1ZM184.871 20.55H184.671L181.321 28.65L177.021 19.45L184.871 0.599999H194.371V35H184.871V20.55ZM156.621 7.05L165.821 26.65V35H156.621V7.05ZM208.659 0.599999H209.509L213.459 14.3L207.709 35H197.709L208.659 0.599999ZM219.909 28.9H211.559L213.659 21.2H217.659L211.759 0.599999H220.909L231.859 35H221.659L219.909 28.9ZM235.186 2V0.599999H245.186L264.486 33.55V35H254.536L235.186 2ZM254.986 13.15V0.599999H264.486V29.4L254.986 13.15ZM235.186 6.15L244.686 22.4V35H235.186V6.15ZM270.977 0.599999H280.977V35H270.977V0.599999ZM295.28 0.599999H296.13L300.08 14.3L294.33 35H284.33L295.28 0.599999ZM306.53 28.9H298.18L300.28 21.2H304.28L298.38 0.599999H307.53L318.48 35H308.28L306.53 28.9Z" fill="#FFF500"/>
</svg>
