<svg width="510" height="57" viewBox="0 0 510 57" fill="none" xmlns="http://www.w3.org/2000/svg">
<path d="M20.44 0.48C22.5733 0.373331 24.3333 0.319997 25.72 0.319997C30.52 0.319997 34.92 0.639997 38.92 1.28C40.9467 1.49333 42.8933 1.81333 44.76 2.24V13.68C42.52 13.4667 40.84 13.28 39.72 13.12C38.8133 13.0667 37.3467 12.9333 35.32 12.72C33.2933 12.6133 31.96 12.56 31.32 12.56C28.0667 12.56 25.6667 12.64 24.12 12.8C22.6267 12.9067 21.4 13.2267 20.44 13.76V0.48ZM25.72 56.64C20.3867 56.64 16.12 56.24 12.92 55.44C9.77333 54.64 7.32 53.2267 5.56 51.2C3.8 49.1733 2.54667 46.3733 1.8 42.8C1.10667 39.2267 0.76 34.4533 0.76 28.48C0.76 23.4133 1 19.2533 1.48 16C1.96 12.7467 2.78667 10.08 3.96 8C5.18667 5.86666 6.84 4.24 8.92 3.12C11 2 13.72 1.22666 17.08 0.799995V28.48C17.08 32.2667 17.1867 35.1733 17.4 37.2C17.6133 39.1733 18.0133 40.6933 18.6 41.76C19.24 42.88 20.1467 43.6533 21.32 44.08C22.5467 44.5067 24.28 44.72 26.52 44.72V56.64H25.72ZM29.88 34.88H24.2V23.28H45V54.64C42.4933 55.2267 39.3733 55.68 35.64 56C33.8267 56.2667 31.9067 56.4267 29.88 56.48V34.88ZM67.4925 0.959998H68.8525L75.1725 22.88L65.9725 56H49.9725L67.4925 0.959998ZM85.4925 46.24H72.1325L75.4925 33.92H81.8925L72.4525 0.959998H87.0925L104.613 56H88.2925L85.4925 46.24ZM109.934 3.36V0.959998H124.654L147.694 49.92L145.054 56H134.654L109.934 3.36ZM155.134 32.88H154.814L149.454 45.84L142.574 31.12L155.134 0.959998H170.334V56H155.134V32.88ZM109.934 11.28L124.654 42.64V56H109.934V11.28ZM180.716 0.959998H196.716V56H180.716V0.959998ZM200.076 0.959998H220.396V13.2H200.076V0.959998ZM200.076 22.08H216.636V34.32H200.076V22.08ZM200.076 43.76H220.396V56H200.076V43.76ZM250.794 3.36V0.959998H265.514L288.554 49.92L285.914 56H275.514L250.794 3.36ZM295.994 32.88H295.674L290.314 45.84L283.434 31.12L295.994 0.959998H311.194V56H295.994V32.88ZM250.794 11.28L265.514 42.64V56H250.794V11.28ZM334.055 0.959998H335.415L341.735 22.88L332.535 56H316.535L334.055 0.959998ZM352.055 46.24H338.695L342.055 33.92H348.455L339.015 0.959998H353.655L371.175 56H354.855L352.055 46.24ZM376.497 3.2V0.959998H392.497L423.377 53.68V56H407.457L376.497 3.2ZM408.177 21.04V0.959998H423.377V47.04L408.177 21.04ZM376.497 9.84L391.697 35.84V56H376.497V9.84ZM433.763 0.959998H449.763V56H433.763V0.959998ZM472.649 0.959998H474.009L480.329 22.88L471.129 56H455.129L472.649 0.959998ZM490.649 46.24H477.289L480.649 33.92H487.049L477.609 0.959998H492.249L509.769 56H493.449L490.649 46.24Z" fill="#FFF500"/>
</svg>
