<svg width="637" height="71" viewBox="0 0 637 71" fill="none" xmlns="http://www.w3.org/2000/svg">
<path d="M25.3 0.599999C27.9667 0.466664 30.1667 0.399996 31.9 0.399996C37.9 0.399996 43.4 0.799997 48.4 1.6C50.9333 1.86667 53.3667 2.26666 55.7 2.79999V17.1C52.9 16.8333 50.8 16.6 49.4 16.4C48.2667 16.3333 46.4333 16.1667 43.9 15.9C41.3667 15.7667 39.7 15.7 38.9 15.7C34.8333 15.7 31.8333 15.8 29.9 16C28.0333 16.1333 26.5 16.5333 25.3 17.2V0.599999ZM31.9 70.8C25.2333 70.8 19.9 70.3 15.9 69.3C11.9667 68.3 8.9 66.5333 6.7 64C4.5 61.4667 2.93333 57.9667 2 53.5C1.13333 49.0333 0.7 43.0667 0.7 35.6C0.7 29.2667 1 24.0667 1.6 20C2.2 15.9333 3.23333 12.6 4.7 10C6.23333 7.33333 8.3 5.3 10.9 3.9C13.5 2.5 16.9 1.53333 21.1 0.999994V35.6C21.1 40.3333 21.2333 43.9667 21.5 46.5C21.7667 48.9667 22.2667 50.8667 23 52.2C23.8 53.6 24.9333 54.5667 26.4 55.1C27.9333 55.6333 30.1 55.9 32.9 55.9V70.8H31.9ZM37.1 43.6H30V29.1H56V68.3C52.8667 69.0333 48.9667 69.6 44.3 70C42.0333 70.3333 39.6333 70.5333 37.1 70.6V43.6ZM84.1156 1.2H85.8156L93.7156 28.6L82.2156 70H62.2156L84.1156 1.2ZM106.616 57.8H89.9156L94.1156 42.4H102.116L90.3156 1.2H108.616L130.516 70H110.116L106.616 57.8ZM137.168 4.19999V1.2H155.568L184.368 62.4L181.068 70H168.068L137.168 4.19999ZM193.668 41.1H193.268L186.568 57.3L177.968 38.9L193.668 1.2H212.668V70H193.668V41.1ZM137.168 14.1L155.568 53.3V70H137.168V14.1ZM225.645 1.2H245.645V70H225.645V1.2ZM249.845 1.2H275.245V16.5H249.845V1.2ZM249.845 27.6H270.545V42.9H249.845V27.6ZM249.845 54.7H275.245V70H249.845V54.7ZM313.242 4.19999V1.2H331.642L360.442 62.4L357.142 70H344.142L313.242 4.19999ZM369.742 41.1H369.342L362.642 57.3L354.042 38.9L369.742 1.2H388.742V70H369.742V41.1ZM313.242 14.1L331.642 53.3V70H313.242V14.1ZM417.319 1.2H419.019L426.919 28.6L415.419 70H395.419L417.319 1.2ZM439.819 57.8H423.119L427.319 42.4H435.319L423.519 1.2H441.819L463.719 70H443.319L439.819 57.8ZM470.371 4V1.2H490.371L528.971 67.1V70H509.071L470.371 4ZM509.971 26.3V1.2H528.971V58.8L509.971 26.3ZM470.371 12.3L489.371 44.8V70H470.371V12.3ZM541.953 1.2H561.953V70H541.953V1.2ZM590.561 1.2H592.261L600.161 28.6L588.661 70H568.661L590.561 1.2ZM613.061 57.8H596.361L600.561 42.4H608.561L596.761 1.2H615.061L636.961 70H616.561L613.061 57.8Z" fill="#FFF500"/>
</svg>
