<svg width="50" height="38" viewBox="0 0 50 38" fill="none" xmlns="http://www.w3.org/2000/svg">
<path d="M0 3.125C0 1.39941 1.59933 0 3.57143 0H46.4286C48.404 0 50 1.39941 50 3.125C50 4.85352 48.404 6.25 46.4286 6.25H3.57143C1.59933 6.25 0 4.85352 0 3.125ZM0 18.75C0 17.0215 1.59933 15.625 3.57143 15.625H46.4286C48.404 15.625 50 17.0215 50 18.75C50 20.4785 48.404 21.875 46.4286 21.875H3.57143C1.59933 21.875 0 20.4785 0 18.75ZM46.4286 37.5H3.57143C1.59933 37.5 0 36.1035 0 34.375C0 32.6465 1.59933 31.25 3.57143 31.25H46.4286C48.404 31.25 50 32.6465 50 34.375C50 36.1035 48.404 37.5 46.4286 37.5Z" fill="black"/>
</svg>
